# xmcd
#
# Track frame offsets:
#	150
#	26635
#	55959
#	76067
#	98804
#	133643
#	166797
#
# Disc length: 2636 seconds
#
# Revision: 0
# Processed by: cddbd v1.4PL0 Copyright (c) Steve Scherf et al.
# Submitted via: EasyCDDAExtractor 4.5.0.1
#
DISCID=4c0a4a07
DTITLE=D¿em - Lunatycy
DYEAR=1900
DGENRE=blues
TTITLE0=Wokó³ Sami Lunatycy
TTITLE1=Paw
TTITLE2=Kim Jestem - Jestem Sobie
TTITLE3=Dzieñ W Którym
TTITLE4=Jesiony
TTITLE5=Skazany Na Bluesa
TTITLE6=Nieudany Skok
EXTD=
EXTT0=
EXTT1=
EXTT2=
EXTT3=
EXTT4=
EXTT5=
EXTT6=
PLAYORDER=
